{
  "source": "C:\\Users\\Peter\\Desktop\\stuff\\MIUN\\quantitative_research\\video_compression\\videos\\BVI-HD\\Lightreef_1920x1080_30fps.mp4",
  "output": "C:\\Users\\Peter\\Desktop\\stuff\\MIUN\\quantitative_research\\video_compression\\compressed_videos\\BVI-HD\\vp9\\12\\Lightreef_1920x1080_30fps_vp9.webm",
  "codec": "vp9",
  "ok": "Input #0, mov,mp4,m4a,3gp,3g2,mj2, from 'C:\\Users\\Peter\\Desktop\\stuff\\MIUN\\quantitative_research\\video_compression\\videos\\BVI-HD\\Lightreef_1920x1080_30fps.mp4':\n  Metadata:\n    major_brand     : isom\n    minor_version   : 512\n    compatible_brands: isomiso2avc1mp41\n    encoder         : Lavf54.28.101\n  Duration: 00:00:05.00, start: 0.000000, bitrate: 361719 kb/s\n  Stream #0:0[0x1](und): Video: h264 (High 4:4:4 Predictive) (avc1 / 0x31637661), yuv420p(progressive), 1920x1080, 361715 kb/s, 30 fps, 30 tbr, 30 tbn (default)\n    Metadata:\n      handler_name    : VideoHandler\n      vendor_id       : [0][0][0][0]\n[out#0/webm @ 00000231b7709380] Codec AVOption b:a (set bitrate (in bits/s)) has not been used for any stream. The most likely reason is either wrong type (e.g. a video option with no video streams) or that it is a private option of some decoder which was not actually used for any stream.\nStream mapping:\n  Stream #0:0 -> #0:0 (h264 (native) -> vp9 (libvpx-vp9))\nPress [q] to stop, [?] for help\n[libvpx-vp9 @ 00000231b82b0340] v1.15.2-100-g40561f514\nOutput #0, webm, to 'C:\\Users\\Peter\\Desktop\\stuff\\MIUN\\quantitative_research\\video_compression\\compressed_videos\\BVI-HD\\vp9\\12\\Lightreef_1920x1080_30fps_vp9.webm':\n  Metadata:\n    major_brand     : isom\n    minor_version   : 512\n    compatible_brands: isomiso2avc1mp41\n    encoder         : Lavf62.3.100\n  Stream #0:0(und): Video: vp9, yuv420p(tv, progressive), 1920x1080, q=2-31, 12000 kb/s, 30 fps, 1k tbn (default)\n    Metadata:\n      encoder         : Lavc62.11.100 libvpx-vp9\n      handler_name    : VideoHandler\n      vendor_id       : [0][0][0][0]\n    Side data:\n      cpb: bitrate max/min/avg: 0/0/0 buffer size: 12000000 vbv_delay: N/A\nframe=    0 fps=0.0 q=0.0 size=       0KiB time=N/A bitrate=N/A speed=N/A elapsed=0:00:00.51    \nframe=    0 fps=0.0 q=0.0 size=       0KiB time=N/A bitrate=N/A speed=N/A elapsed=0:00:01.12    \nframe=    2 fps=1.2 q=23.0 size=       1KiB time=00:00:00.06 bitrate=  76.1kbits/s speed=0.0396x elapsed=0:00:01.68    \nframe=    5 fps=2.2 q=43.0 size=       1KiB time=00:00:00.16 bitrate=  30.4kbits/s speed=0.0741x elapsed=0:00:02.24    \nframe=    6 fps=2.1 q=44.0 size=       1KiB time=00:00:00.20 bitrate=  25.4kbits/s speed=0.0693x elapsed=0:00:02.88    \nframe=    7 fps=2.0 q=43.0 size=       1KiB time=00:00:00.23 bitrate=  21.7kbits/s speed=0.0672x elapsed=0:00:03.47    \nframe=    9 fps=2.2 q=44.0 size=       1KiB time=00:00:00.30 bitrate=  16.9kbits/s speed=0.075x elapsed=0:00:04.00    \nframe=   10 fps=2.2 q=43.0 size=       1KiB time=00:00:00.33 bitrate=  15.2kbits/s speed=0.072x elapsed=0:00:04.62    \nframe=   10 fps=1.9 q=43.0 size=       1KiB time=00:00:00.33 bitrate=  15.2kbits/s speed=0.0638x elapsed=0:00:05.22    \nframe=   13 fps=2.2 q=41.0 size=       1KiB time=00:00:00.43 bitrate=  11.7kbits/s speed=0.075x elapsed=0:00:05.78    \nframe=   14 fps=2.2 q=42.0 size=       1KiB time=00:00:00.46 bitrate=  10.9kbits/s speed=0.074x elapsed=0:00:06.30    \nframe=   16 fps=2.3 q=42.0 size=       1KiB time=00:00:00.53 bitrate=   9.5kbits/s speed=0.078x elapsed=0:00:06.83    \nframe=   18 fps=2.4 q=43.0 size=       1KiB time=00:00:00.60 bitrate=   8.5kbits/s speed=0.0813x elapsed=0:00:07.37    \nframe=   20 fps=2.5 q=43.0 size=       1KiB time=00:00:00.66 bitrate=   7.6kbits/s speed=0.0841x elapsed=0:00:07.92    \nframe=   20 fps=2.4 q=43.0 size=       1KiB time=00:00:00.66 bitrate=   7.6kbits/s speed=0.0789x elapsed=0:00:08.44    \nframe=   22 fps=2.5 q=43.0 size=       1KiB time=00:00:00.73 bitrate=   6.9kbits/s speed=0.0817x elapsed=0:00:08.97    \nframe=   24 fps=2.5 q=41.0 size=       1KiB time=00:00:00.80 bitrate=   6.3kbits/s speed=0.084x elapsed=0:00:09.52    \nframe=   26 fps=2.6 q=42.0 size=       1KiB time=00:00:00.86 bitrate=   5.9kbits/s speed=0.0858x elapsed=0:00:10.09    \nframe=   27 fps=2.5 q=42.0 size=       1KiB time=00:00:00.90 bitrate=   5.6kbits/s speed=0.0843x elapsed=0:00:10.67    \nframe=   29 fps=2.6 q=43.0 size=       1KiB time=00:00:00.96 bitrate=   5.2kbits/s speed=0.0863x elapsed=0:00:11.20    \nframe=   30 fps=2.6 q=43.0 size=       1KiB time=00:00:01.00 bitrate=   5.1kbits/s speed=0.085x elapsed=0:00:11.76    \nframe=   31 fps=2.5 q=20.0 size=       1KiB time=00:00:01.03 bitrate=   4.9kbits/s speed=0.0835x elapsed=0:00:12.37    \nframe=   33 fps=2.5 q=38.0 size=       1KiB time=00:00:01.10 bitrate=   4.6kbits/s speed=0.085x elapsed=0:00:12.94    \nframe=   35 fps=2.6 q=42.0 size=       1KiB time=00:00:01.16 bitrate=   4.3kbits/s speed=0.0864x elapsed=0:00:13.50    \nframe=   36 fps=2.6 q=42.0 size=       1KiB time=00:00:01.20 bitrate=   4.2kbits/s speed=0.0851x elapsed=0:00:14.09    \nframe=   38 fps=2.6 q=42.0 size=       1KiB time=00:00:01.26 bitrate=   4.0kbits/s speed=0.0859x elapsed=0:00:14.75    \nframe=   40 fps=2.6 q=42.0 size=       1KiB time=00:00:01.33 bitrate=   3.8kbits/s speed=0.0871x elapsed=0:00:15.30    \nframe=   41 fps=2.6 q=30.0 size=       1KiB time=00:00:01.36 bitrate=   3.7kbits/s speed=0.0863x elapsed=0:00:15.83    \nframe=   43 fps=2.6 q=38.0 size=       1KiB time=00:00:01.43 bitrate=   3.5kbits/s speed=0.0874x elapsed=0:00:16.40    \nframe=   45 fps=2.7 q=42.0 size=       1KiB time=00:00:01.50 bitrate=   3.4kbits/s speed=0.0884x elapsed=0:00:16.97    \nframe=   46 fps=2.6 q=41.0 size=       1KiB time=00:00:01.53 bitrate=   3.3kbits/s speed=0.0875x elapsed=0:00:17.53    \nframe=   48 fps=2.7 q=46.0 size=       1KiB time=00:00:01.60 bitrate=   3.2kbits/s speed=0.0886x elapsed=0:00:18.06    \nframe=   50 fps=2.7 q=42.0 size=       1KiB time=00:00:01.63 bitrate=   3.1kbits/s speed=0.0878x elapsed=0:00:18.59    \nframe=   51 fps=2.7 q=43.0 size=       1KiB time=00:00:01.70 bitrate=   3.0kbits/s speed=0.0887x elapsed=0:00:19.16    \nframe=   53 fps=2.7 q=44.0 size=       1KiB time=00:00:01.76 bitrate=   2.9kbits/s speed=0.0897x elapsed=0:00:19.70    \nframe=   55 fps=2.7 q=44.0 size=       1KiB time=00:00:01.83 bitrate=   2.8kbits/s speed=0.0904x elapsed=0:00:20.27    \nframe=   56 fps=2.7 q=44.0 size=       1KiB time=00:00:01.86 bitrate=   2.7kbits/s speed=0.0896x elapsed=0:00:20.83    \nframe=   58 fps=2.7 q=37.0 size=       1KiB time=00:00:01.93 bitrate=   2.6kbits/s speed=0.0904x elapsed=0:00:21.39    \nframe=   59 fps=2.7 q=37.0 size=       1KiB time=00:00:01.96 bitrate=   2.6kbits/s speed=0.0897x elapsed=0:00:21.91    \nframe=   61 fps=2.7 q=39.0 size=       1KiB time=00:00:02.03 bitrate=   2.5kbits/s speed=0.0906x elapsed=0:00:22.44    \nframe=   63 fps=2.7 q=40.0 size=       1KiB time=00:00:02.10 bitrate=   2.4kbits/s speed=0.0913x elapsed=0:00:22.99    \nframe=   65 fps=2.8 q=40.0 size=       1KiB time=00:00:02.16 bitrate=   2.3kbits/s speed=0.092x elapsed=0:00:23.55    \nframe=   66 fps=2.7 q=42.0 size=       1KiB time=00:00:02.20 bitrate=   2.3kbits/s speed=0.0913x elapsed=0:00:24.10    \nframe=   68 fps=2.8 q=43.0 size=       1KiB time=00:00:02.26 bitrate=   2.2kbits/s speed=0.092x elapsed=0:00:24.63    \nframe=   70 fps=2.8 q=41.0 size=       1KiB time=00:00:02.33 bitrate=   2.2kbits/s speed=0.0927x elapsed=0:00:25.18    \nframe=   71 fps=2.8 q=41.0 size=       1KiB time=00:00:02.36 bitrate=   2.1kbits/s speed=0.0918x elapsed=0:00:25.78    \nframe=   72 fps=2.7 q=42.0 size=       1KiB time=00:00:02.40 bitrate=   2.1kbits/s speed=0.0912x elapsed=0:00:26.30    \nframe=   74 fps=2.8 q=42.0 size=       1KiB time=00:00:02.46 bitrate=   2.1kbits/s speed=0.092x elapsed=0:00:26.82    \nframe=   76 fps=2.8 q=41.0 size=       1KiB time=00:00:02.53 bitrate=   2.0kbits/s speed=0.0926x elapsed=0:00:27.35    \nframe=   78 fps=2.8 q=42.0 size=       1KiB time=00:00:02.60 bitrate=   2.0kbits/s speed=0.0932x elapsed=0:00:27.89    \nframe=   79 fps=2.8 q=28.0 size=       1KiB time=00:00:02.63 bitrate=   1.9kbits/s speed=0.0925x elapsed=0:00:28.46    \nframe=   81 fps=2.8 q=40.0 size=       1KiB time=00:00:02.70 bitrate=   1.9kbits/s speed=0.093x elapsed=0:00:29.02    \nframe=   82 fps=2.8 q=41.0 size=       1KiB time=00:00:02.73 bitrate=   1.9kbits/s speed=0.0925x elapsed=0:00:29.54    \nframe=   84 fps=2.8 q=42.0 size=       1KiB time=00:00:02.80 bitrate=   1.8kbits/s speed=0.0931x elapsed=0:00:30.08    \nframe=   86 fps=2.8 q=42.0 size=       1KiB time=00:00:02.86 bitrate=   1.8kbits/s speed=0.0936x elapsed=0:00:30.62    \nframe=   87 fps=2.8 q=43.0 size=       1KiB time=00:00:02.90 bitrate=   1.7kbits/s speed=0.093x elapsed=0:00:31.17    \nframe=   88 fps=2.8 q=43.0 size=       1KiB time=00:00:02.93 bitrate=   1.7kbits/s speed=0.0926x elapsed=0:00:31.68    \nframe=   91 fps=2.8 q=42.0 size=       1KiB time=00:00:03.03 bitrate=   1.7kbits/s speed=0.0941x elapsed=0:00:32.23    \nframe=   92 fps=2.8 q=43.0 size=       1KiB time=00:00:03.06 bitrate=   1.7kbits/s speed=0.0935x elapsed=0:00:32.80    \nframe=   94 fps=2.8 q=42.0 size=       1KiB time=00:00:03.13 bitrate=   1.6kbits/s speed=0.0941x elapsed=0:00:33.30    \nframe=   96 fps=2.8 q=42.0 size=       1KiB time=00:00:03.20 bitrate=   1.6kbits/s speed=0.0946x elapsed=0:00:33.83    \nframe=   98 fps=2.9 q=41.0 size=    5120KiB time=00:00:03.26 bitrate=12839.7kbits/s speed=0.095x elapsed=0:00:34.37    \nframe=  100 fps=2.9 q=42.0 size=    5120KiB time=00:00:03.33 bitrate=12582.9kbits/s speed=0.0955x elapsed=0:00:34.91    \nframe=  102 fps=2.9 q=42.0 size=    5120KiB time=00:00:03.40 bitrate=12336.2kbits/s speed=0.0959x elapsed=0:00:35.45    \nframe=  104 fps=2.9 q=41.0 size=    5120KiB time=00:00:03.46 bitrate=12099.0kbits/s speed=0.0962x elapsed=0:00:36.02    \nframe=  106 fps=2.9 q=43.0 size=    5120KiB time=00:00:03.53 bitrate=11870.7kbits/s speed=0.0966x elapsed=0:00:36.59    \nframe=  107 fps=2.9 q=30.0 size=    5120KiB time=00:00:03.56 bitrate=11759.7kbits/s speed=0.0959x elapsed=0:00:37.20    \nframe=  108 fps=2.9 q=43.0 size=    5120KiB time=00:00:03.60 bitrate=11650.8kbits/s speed=0.0952x elapsed=0:00:37.82    \nframe=  110 fps=2.9 q=43.0 size=    5120KiB time=00:00:03.66 bitrate=11439.0kbits/s speed=0.0954x elapsed=0:00:38.41    \nframe=  111 fps=2.8 q=43.0 size=    5120KiB time=00:00:03.70 bitrate=11336.0kbits/s speed=0.0948x elapsed=0:00:39.03    \nframe=  112 fps=2.8 q=42.0 size=    5120KiB time=00:00:03.73 bitrate=11234.7kbits/s speed=0.0942x elapsed=0:00:39.63    \nframe=  114 fps=2.8 q=43.0 size=    5120KiB time=00:00:03.76 bitrate=11135.3kbits/s speed=0.0936x elapsed=0:00:40.22    \nframe=  115 fps=2.8 q=41.0 size=    5120KiB time=00:00:03.83 bitrate=10941.7kbits/s speed=0.0939x elapsed=0:00:40.82    \nframe=  116 fps=2.8 q=41.0 size=    5120KiB time=00:00:03.86 bitrate=10847.3kbits/s speed=0.0933x elapsed=0:00:41.42    \nframe=  118 fps=2.8 q=41.0 size=    5120KiB time=00:00:03.93 bitrate=10663.5kbits/s speed=0.0937x elapsed=0:00:41.98    \nframe=  118 fps=2.8 q=41.0 size=    5120KiB time=00:00:03.93 bitrate=10663.5kbits/s speed=0.0924x elapsed=0:00:42.58    \nframe=  120 fps=2.8 q=40.0 size=    5120KiB time=00:00:04.00 bitrate=10485.8kbits/s speed=0.0928x elapsed=0:00:43.12    \nframe=  121 fps=2.8 q=39.0 size=    5120KiB time=00:00:04.03 bitrate=10399.1kbits/s speed=0.0924x elapsed=0:00:43.66    \nframe=  123 fps=2.8 q=40.0 size=    5120KiB time=00:00:04.10 bitrate=10230.0kbits/s speed=0.0927x elapsed=0:00:44.22    \nframe=  125 fps=2.8 q=40.0 size=    5120KiB time=00:00:04.16 bitrate=10066.3kbits/s speed=0.0929x elapsed=0:00:44.82    \nframe=  126 fps=2.8 q=39.0 size=    5120KiB time=00:00:04.20 bitrate=9986.4kbits/s speed=0.0925x elapsed=0:00:45.38    \nframe=  126 fps=2.7 q=39.0 size=    5120KiB time=00:00:04.20 bitrate=9986.4kbits/s speed=0.0915x elapsed=0:00:45.91    \nframe=  126 fps=2.7 q=39.0 size=    5120KiB time=00:00:04.20 bitrate=9986.4kbits/s speed=0.0904x elapsed=0:00:46.45    \nframe=  126 fps=2.7 q=39.0 size=    5120KiB time=00:00:04.20 bitrate=9986.4kbits/s speed=0.0894x elapsed=0:00:46.98    \nframe=  126 fps=2.7 q=39.0 size=    5120KiB time=00:00:04.20 bitrate=9986.4kbits/s speed=0.0884x elapsed=0:00:47.51    \nframe=  126 fps=2.6 q=39.0 size=    5120KiB time=00:00:04.20 bitrate=9986.4kbits/s speed=0.0874x elapsed=0:00:48.02    \nframe=  126 fps=2.6 q=39.0 size=    5120KiB time=00:00:04.20 bitrate=9986.4kbits/s speed=0.0865x elapsed=0:00:48.56    \nframe=  126 fps=2.6 q=39.0 size=    5120KiB time=00:00:04.20 bitrate=9986.4kbits/s speed=0.0856x elapsed=0:00:49.07    \nframe=  126 fps=2.5 q=39.0 size=    5120KiB time=00:00:04.20 bitrate=9986.4kbits/s speed=0.0847x elapsed=0:00:49.59    \nframe=  126 fps=2.5 q=39.0 size=    5120KiB time=00:00:04.20 bitrate=9986.4kbits/s speed=0.0838x elapsed=0:00:50.11    \nframe=  126 fps=2.5 q=39.0 size=    5120KiB time=00:00:04.20 bitrate=9986.4kbits/s speed=0.083x elapsed=0:00:50.63    \n[out#0/webm @ 00000231b7709380] video:7836KiB audio:0KiB subtitle:0KiB other streams:0KiB global headers:0KiB muxing overhead: 0.023692%\nframe=  150 fps=3.0 q=45.0 Lsize=    7838KiB time=00:00:05.00 bitrate=12841.3kbits/s speed=0.0983x elapsed=0:00:50.83    \n",
  "seconds": 51.196561336517334,
  "probe_out": {}
}